<svg width="200" height="140" viewBox="0 0 200 140" fill="none" xmlns="http://www.w3.org/2000/svg">
<path d="M46 78.4L77 33.4H133L99 85.4L46 78.4ZM99 85.4H50H99ZM99 85.4L71 19H61H89.5L99 85.4ZM155.7 78C154.794 78 153.897 78.1785 153.059 78.5252C152.222 78.872 151.462 79.3802 150.821 80.021C150.18 80.6617 149.672 81.4223 149.325 82.2595C148.978 83.0966 148.8 83.9939 148.8 84.9C148.8 85.8061 148.978 86.7034 149.325 87.5405C149.672 88.3777 150.18 89.1383 150.821 89.779C151.462 90.4198 152.222 90.928 153.059 91.2748C153.897 91.6215 154.794 91.8 155.7 91.8C157.53 91.8 159.285 91.073 160.579 89.779C161.873 88.485 162.6 86.73 162.6 84.9C162.6 83.07 161.873 81.315 160.579 80.021C159.285 78.727 157.53 78 155.7 78V78ZM155.7 78L133.5 33.4V19H154C157.8 19 160.9 22.2 160.9 26C160.9 29.8 157.8 33 154 33H151.5L155.7 78ZM76.6 84.9C76.6 103.843 61.243 119.2 42.3 119.2C23.357 119.2 8 103.843 8 84.9C8 65.957 23.357 50.6 42.3 50.6C61.243 50.6 76.6 65.957 76.6 84.9ZM190 84.9C190 103.843 174.643 119.2 155.7 119.2C136.757 119.2 121.4 103.843 121.4 84.9C121.4 65.957 136.757 50.6 155.7 50.6C174.643 50.6 190 65.957 190 84.9ZM49.2 84.9C49.2 86.73 48.473 88.485 47.179 89.779C45.885 91.073 44.13 91.8 42.3 91.8C40.47 91.8 38.715 91.073 37.421 89.779C36.127 88.485 35.4 86.73 35.4 84.9C35.4 83.07 36.127 81.315 37.421 80.021C38.715 78.727 40.47 78 42.3 78C44.13 78 45.885 78.727 47.179 80.021C48.473 81.315 49.2 83.07 49.2 84.9Z" stroke="#9D32C9" stroke-width="4" stroke-miterlimit="10" stroke-linecap="round" stroke-linejoin="round"/>
</svg>
