<svg width="58" height="58" viewBox="0 0 58 58" fill="none" xmlns="http://www.w3.org/2000/svg">
<rect x="2" y="2" width="54" height="54" stroke="#9D32C9" stroke-width="4"/>
<path d="M7.71953 46V13.4H18.6695C20.3695 13.4 21.9362 13.5333 23.3695 13.8C24.8362 14.0333 26.1029 14.4667 27.1695 15.1C28.2362 15.7333 29.0695 16.5667 29.6695 17.6C30.3029 18.6333 30.6195 19.9333 30.6195 21.5C30.6195 22.2333 30.5029 22.9667 30.2695 23.7C30.0695 24.4333 29.7362 25.1167 29.2695 25.75C28.8029 26.3833 28.2195 26.95 27.5195 27.45C26.8195 27.95 25.9862 28.3167 25.0195 28.55V28.75C27.3529 29.1833 29.1195 30.0167 30.3195 31.25C31.5195 32.4833 32.1195 34.2 32.1195 36.4C32.1195 38.0667 31.8029 39.5 31.1695 40.7C30.5362 41.9 29.6529 42.9 28.5195 43.7C27.3862 44.4667 26.0529 45.05 24.5195 45.45C23.0195 45.8167 21.3862 46 19.6195 46H7.71953ZM15.0695 26.5H18.3195C20.1195 26.5 21.4195 26.15 22.2195 25.45C23.0195 24.75 23.4195 23.7667 23.4195 22.5C23.4195 21.3 23.0029 20.45 22.1695 19.95C21.3695 19.4167 20.1029 19.15 18.3695 19.15H15.0695V26.5ZM15.0695 40.25H19.0195C22.9529 40.25 24.9195 38.7833 24.9195 35.85C24.9195 34.4167 24.4362 33.3833 23.4695 32.75C22.5362 32.1167 21.0529 31.8 19.0195 31.8H15.0695V40.25ZM41.8 46.6C39.7667 46.6 37.8333 46.25 36 45.55C34.2 44.8167 32.6 43.75 31.2 42.35C29.8333 40.95 28.7333 39.2167 27.9 37.15C27.1 35.05 26.7 32.6333 26.7 29.9C26.7 27.2 27.1 24.8 27.9 22.7C28.7 20.5667 29.8 18.7667 31.2 17.3C32.6 15.8333 34.25 14.7167 36.15 13.95C38.05 13.1833 40.0833 12.8 42.25 12.8C44.3167 12.8 46.1833 13.2333 47.85 14.1C49.5167 14.9333 50.9 15.8833 52 16.95L47.95 21.5C47.1833 20.8 46.3333 20.2333 45.4 19.8C44.5 19.3667 43.45 19.15 42.25 19.15C41.0833 19.15 40.0167 19.4 39.05 19.9C38.0833 20.3667 37.2333 21.05 36.5 21.95C35.8 22.85 35.25 23.95 34.85 25.25C34.45 26.55 34.25 28.0167 34.25 29.65C34.25 33.0167 35.0167 35.6333 36.55 37.5C38.0833 39.3333 40.0833 40.25 42.55 40.25C43.7167 40.25 44.7833 39.9833 45.75 39.45C46.75 38.9167 47.65 38.2167 48.45 37.35L52.5 41.8C49.8 45 46.2333 46.6 41.8 46.6Z" fill="#9D32C9"/>
</svg>
