<svg width="200" height="140" viewBox="0 0 200 140" fill="none" xmlns="http://www.w3.org/2000/svg">
<path d="M50.5 89.5H99.5H50.5ZM99.5 89.5L89.306 74L99.5 89.5ZM99.5 89.5C104 75.833 118.4 48.5 140 48.5L99.5 89.5ZM75.496 53L63 34L75.496 53ZM75.496 53C69 56 52 71 47 83.5L75.496 53ZM75.496 53L89.306 74L75.496 53ZM63 34H53H63ZM63 34H81H63ZM89.306 74C94.5 60.5 108.3 34 133.5 34H157L89.306 74ZM113 15H124L128.4 24L113 15ZM156 82.5L137.689 43L156 82.5ZM137.689 43H160L154 24H128.4L137.689 43ZM137.689 43L128.4 24L137.689 43ZM78 89.5C78 108.554 62.554 124 43.5 124C24.446 124 9 108.554 9 89.5C9 70.446 24.446 55 43.5 55C62.554 55 78 70.446 78 89.5ZM50 89.5C50 91.2239 49.3152 92.8772 48.0962 94.0962C46.8772 95.3152 45.2239 96 43.5 96C41.7761 96 40.1228 95.3152 38.9038 94.0962C37.6848 92.8772 37 91.2239 37 89.5C37 87.7761 37.6848 86.1228 38.9038 84.9038C40.1228 83.6848 41.7761 83 43.5 83C45.2239 83 46.8772 83.6848 48.0962 84.9038C49.3152 86.1228 50 87.7761 50 89.5V89.5ZM191 89.5C191 108.554 175.554 124 156.5 124C137.446 124 122 108.554 122 89.5C122 70.446 137.446 55 156.5 55C175.554 55 191 70.446 191 89.5ZM163 89.5C163 91.2239 162.315 92.8772 161.096 94.0962C159.877 95.3152 158.224 96 156.5 96C154.776 96 153.123 95.3152 151.904 94.0962C150.685 92.8772 150 91.2239 150 89.5C150 87.7761 150.685 86.1228 151.904 84.9038C153.123 83.6848 154.776 83 156.5 83C158.224 83 159.877 83.6848 161.096 84.9038C162.315 86.1228 163 87.7761 163 89.5V89.5Z" stroke="#9D32C9" stroke-width="4" stroke-linecap="round" stroke-linejoin="round"/>
</svg>
