<svg width="200" height="140" viewBox="0 0 200 140" fill="none" xmlns="http://www.w3.org/2000/svg">
<path d="M44.5 95C34.835 95 27 102.835 27 112.5C27 122.165 34.835 130 44.5 130C54.165 130 62 122.165 62 112.5C62 102.835 54.165 95 44.5 95ZM44.5 95C54.6 60.9 87.1 36 124.5 36L44.5 95ZM124.5 36C98.819 36 78 56.819 78 82.5C78 108.181 98.819 129 124.5 129C150.181 129 171 108.181 171 82.5C171 56.819 150.181 36 124.5 36ZM124.5 36H125C135 36 135 20 125 20H106L118 9L124.5 36ZM78 50V38H59V67L78 50ZM51 112.5C51 114.224 50.3152 115.877 49.0962 117.096C47.8772 118.315 46.2239 119 44.5 119C42.7761 119 41.1228 118.315 39.9038 117.096C38.6848 115.877 38 114.224 38 112.5C38 110.776 38.6848 109.123 39.9038 107.904C41.1228 106.685 42.7761 106 44.5 106C46.2239 106 47.8772 106.685 49.0962 107.904C50.3152 109.123 51 110.776 51 112.5V112.5ZM131 82.5C131 84.2239 130.315 85.8772 129.096 87.0962C127.877 88.3152 126.224 89 124.5 89C122.776 89 121.123 88.3152 119.904 87.0962C118.685 85.8772 118 84.2239 118 82.5C118 80.7761 118.685 79.1228 119.904 77.9038C121.123 76.6848 122.776 76 124.5 76C126.224 76 127.877 76.6848 129.096 77.9038C130.315 79.1228 131 80.7761 131 82.5Z" stroke="#9D32C9" stroke-width="4" stroke-miterlimit="10" stroke-linecap="round" stroke-linejoin="round"/>
</svg>
