<svg width="58" height="58" viewBox="0 0 58 58" fill="none" xmlns="http://www.w3.org/2000/svg">
<rect x="2" y="2" width="54" height="54" stroke="#D059FF" stroke-width="4"/>
<g clip-path="url(#clip0)">
<path fill-rule="evenodd" clip-rule="evenodd" d="M25.4269 46.5591C25.4269 46.803 25.6237 46.9999 25.8677 46.9999H32.1512C32.3952 46.9999 32.592 46.803 32.592 46.5591V29.3621H37.1475C37.3772 29.3621 37.5675 29.1871 37.5872 28.9574L38.0247 23.7774C38.0298 23.7166 38.0223 23.6555 38.0026 23.5978C37.9829 23.5401 37.9515 23.4871 37.9102 23.4422C37.869 23.3973 37.8189 23.3614 37.7631 23.3368C37.7073 23.3122 37.6471 23.2995 37.5861 23.2994H32.592V19.6233C32.592 18.7614 33.2898 18.0625 34.1517 18.0625H37.6627C37.9066 18.0625 38.1034 17.8657 38.1034 17.6218V12.4407C38.1034 12.3238 38.057 12.2116 37.9743 12.129C37.8917 12.0463 37.7796 11.9999 37.6627 11.9999H31.7313C30.0595 11.9999 28.4563 12.664 27.2742 13.8461C26.0921 15.0282 25.428 16.6314 25.428 18.3032V23.2994H22.2845C22.1678 23.2994 22.0559 23.3457 21.9732 23.4281C21.8906 23.5105 21.844 23.6224 21.8438 23.7391V28.9213C21.8438 29.1652 22.0406 29.3621 22.2845 29.3621H25.4269V46.5591Z" fill="#D059FF"/>
</g>
<defs>
<clipPath id="clip0">
<rect width="35" height="35" fill="white" transform="translate(12 11.9999)"/>
</clipPath>
</defs>
</svg>
