<svg width="58" height="58" viewBox="0 0 58 58" fill="none" xmlns="http://www.w3.org/2000/svg">
<rect x="2" y="2" width="54" height="54" stroke="#9D32C9" stroke-width="4"/>
<g clip-path="url(#clip0)">
<path fill-rule="evenodd" clip-rule="evenodd" d="M46.8688 18.7376C45.7564 19.2407 44.5325 19.5458 43.3338 19.7471C43.9025 19.6508 44.7425 18.6205 45.0783 18.2027C45.5902 17.5673 46.0157 16.841 46.2552 16.059C46.2858 15.9977 46.3099 15.9212 46.2486 15.8741C46.1721 15.8446 46.1218 15.8599 46.0605 15.8905C44.7333 16.5992 43.3227 17.1394 41.8616 17.4983C41.811 17.5141 41.7569 17.5153 41.7057 17.5017C41.6544 17.4882 41.608 17.4605 41.5718 17.4218C41.4595 17.2871 41.337 17.1613 41.2053 17.0455C40.5988 16.5231 39.9118 16.102 39.171 15.7987C38.182 15.3981 37.1153 15.2261 36.0505 15.2955C35.0162 15.3659 34.0078 15.6508 33.0897 16.1323C32.17 16.613 31.358 17.2762 30.7032 18.0813C30.0236 18.9173 29.5366 19.8927 29.2769 20.9382C29.0319 21.9444 29.0516 22.9376 29.2003 23.9537C29.2244 24.1221 29.2091 24.1451 29.0571 24.1221C23.2864 23.2657 18.5067 21.2007 14.625 16.7798C14.4566 16.5873 14.3647 16.5873 14.2269 16.794C12.5283 19.3402 13.3519 23.4298 15.4738 25.4401C15.7571 25.708 16.0469 25.976 16.3608 26.2199C16.2471 26.244 14.835 26.0908 13.5761 25.4401C13.4077 25.334 13.3235 25.3952 13.3082 25.5855C13.2972 25.862 13.3126 26.1389 13.3541 26.4124C13.68 28.9937 15.4672 31.3802 17.915 32.3121C18.206 32.4335 18.5264 32.5418 18.8403 32.5943C18.2825 32.7168 17.7083 32.8043 16.1092 32.6796C15.9102 32.6402 15.8336 32.7397 15.9102 32.9312C17.1111 36.2069 19.7055 37.1815 21.648 37.736C21.9083 37.7819 22.1686 37.7819 22.4289 37.8432C22.4136 37.8662 22.3983 37.8662 22.383 37.8891C21.7377 38.8713 19.5042 39.603 18.4641 39.9672C16.5719 40.6279 14.5124 40.9254 12.5119 40.7285C12.1925 40.6815 12.1247 40.6848 12.0383 40.7285C11.9508 40.7832 12.0274 40.8597 12.1302 40.9418C12.5349 41.2097 12.9483 41.4471 13.3694 41.6768C14.6337 42.3509 15.968 42.8845 17.3485 43.2682C24.4983 45.2424 32.5516 43.7921 37.9219 38.4579C42.1361 34.2688 43.6138 28.4927 43.6138 22.7079C43.6138 22.4826 43.8807 22.3579 44.0403 22.2376C45.1374 21.414 46.0091 20.4274 46.8272 19.326C47.011 19.0788 47 18.859 47 18.7682V18.7376C47 18.6457 47.011 18.673 46.8688 18.7376Z" fill="#9D32C9"/>
</g>
<defs>
<clipPath id="clip0">
<rect width="35" height="35" fill="white" transform="translate(12 12)"/>
</clipPath>
</defs>
</svg>
