<svg width="58" height="58" viewBox="0 0 58 58" fill="none" xmlns="http://www.w3.org/2000/svg">
<rect x="2" y="2" width="54" height="54" stroke="#9D32C9" stroke-width="4"/>
<g clip-path="url(#clip0)">
<path fill-rule="evenodd" clip-rule="evenodd" d="M25.4269 46.5592C25.4269 46.8031 25.6237 47 25.8677 47H32.1512C32.3952 47 32.592 46.8031 32.592 46.5592V29.3622H37.1475C37.3772 29.3622 37.5675 29.1872 37.5872 28.9575L38.0247 23.7775C38.0298 23.7168 38.0223 23.6556 38.0026 23.5979C37.9829 23.5402 37.9515 23.4872 37.9102 23.4423C37.869 23.3974 37.8189 23.3615 37.7631 23.3369C37.7073 23.3123 37.6471 23.2996 37.5861 23.2995H32.592V19.6234C32.592 18.7616 33.2898 18.0627 34.1517 18.0627H37.6627C37.9066 18.0627 38.1034 17.8658 38.1034 17.6219V12.4408C38.1034 12.3239 38.057 12.2118 37.9743 12.1291C37.8917 12.0464 37.7796 12 37.6627 12H31.7313C30.0595 12 28.4563 12.6641 27.2742 13.8462C26.0921 15.0283 25.428 16.6315 25.428 18.3033V23.2995H22.2845C22.1678 23.2995 22.0559 23.3458 21.9732 23.4282C21.8906 23.5107 21.844 23.6225 21.8438 23.7392V28.9214C21.8438 29.1653 22.0406 29.3622 22.2845 29.3622H25.4269V46.5592Z" fill="#9D32C9"/>
</g>
<defs>
<clipPath id="clip0">
<rect width="35" height="35" fill="white" transform="translate(12 12)"/>
</clipPath>
</defs>
</svg>
