<svg width="58" height="58" viewBox="0 0 58 58" fill="none" xmlns="http://www.w3.org/2000/svg">
<rect x="2" y="2" width="54" height="54" stroke="#D059FF" stroke-width="4"/>
<g clip-path="url(#clip0)">
<path d="M43.698 36.4572C43.698 37.4081 43.5107 38.3496 43.1468 39.2281C42.7829 40.1066 42.2496 40.9048 41.5772 41.5771C40.9049 42.2495 40.1067 42.7828 39.2282 43.1467C38.3497 43.5106 37.4082 43.6978 36.4573 43.6978H22.5427C20.6223 43.6978 18.7806 42.935 17.4228 41.5771C16.0649 40.2192 15.302 38.3776 15.302 36.4572V22.5414C15.302 20.6211 16.0649 18.7794 17.4228 17.4215C18.7806 16.0637 20.6223 15.3008 22.5427 15.3008H36.4573C38.3777 15.3008 40.2194 16.0637 41.5772 17.4215C42.9351 18.7794 43.698 20.6211 43.698 22.5414V36.4572V36.4572ZM47 22.5414C47 16.7194 42.2794 11.9999 36.4563 11.9999H22.5438C16.7195 11.9999 12 16.7194 12 22.5414V36.4572C12 42.2793 16.7206 46.9999 22.5438 46.9999H36.4563C39.2526 46.9999 41.9345 45.889 43.9118 43.9117C45.8891 41.9343 47 39.2525 47 36.4561V22.5414ZM29.5591 35.2618C28.0912 35.26 26.684 34.6761 25.646 33.6382C24.6081 32.6003 24.0242 31.193 24.0225 29.7252C24.0242 28.2573 24.6081 26.8501 25.646 25.8122C26.684 24.7742 28.0912 24.1904 29.5591 24.1886C31.027 24.1901 32.4344 24.7739 33.4724 25.8118C34.5104 26.8498 35.0942 28.2572 35.0956 29.7252C35.0942 31.1931 34.5104 32.6005 33.4724 33.6385C32.4344 34.6765 31.027 35.2603 29.5591 35.2618V35.2618ZM29.5591 21.0824C24.7936 21.0824 20.9163 24.9597 20.9163 29.7252C20.9163 34.4918 24.7936 38.368 29.5591 38.368C34.3256 38.368 38.203 34.4918 38.203 29.7252C38.203 24.9597 34.3256 21.0824 29.5591 21.0824V21.0824ZM38.7072 18.4432C38.4369 18.4432 38.1693 18.4964 37.9197 18.5998C37.67 18.7032 37.4431 18.8548 37.252 19.0459C37.0609 19.237 36.9094 19.4639 36.8059 19.7135C36.7025 19.9632 36.6493 20.2308 36.6493 20.501C36.6493 20.7713 36.7025 21.0389 36.8059 21.2886C36.9094 21.5382 37.0609 21.7651 37.252 21.9562C37.4431 22.1473 37.67 22.2989 37.9197 22.4023C38.1693 22.5057 38.4369 22.5589 38.7072 22.5589C39.253 22.5589 39.7764 22.3421 40.1623 21.9562C40.5483 21.5703 40.7651 21.0468 40.7651 20.501C40.7651 19.9553 40.5483 19.4318 40.1623 19.0459C39.7764 18.66 39.253 18.4432 38.7072 18.4432V18.4432Z" fill="#D059FF"/>
</g>
<defs>
<clipPath id="clip0">
<rect width="35" height="35" fill="white" transform="translate(12 11.9999)"/>
</clipPath>
</defs>
</svg>
