<svg width="58" height="58" viewBox="0 0 58 58" fill="none" xmlns="http://www.w3.org/2000/svg">
<rect x="2" y="2" width="54" height="54" stroke="#9D32C9" stroke-width="4"/>
<path d="M43.698 36.4573C43.698 37.4082 43.5107 38.3497 43.1468 39.2282C42.7829 40.1067 42.2496 40.9049 41.5772 41.5772C40.9049 42.2496 40.1067 42.7829 39.2282 43.1468C38.3497 43.5107 37.4082 43.698 36.4573 43.698H22.5427C20.6223 43.698 18.7806 42.9351 17.4228 41.5772C16.0649 40.2194 15.302 38.3777 15.302 36.4573V22.5416C15.302 20.6212 16.0649 18.7795 17.4228 17.4217C18.7806 16.0638 20.6223 15.3009 22.5427 15.3009H36.4573C38.3777 15.3009 40.2194 16.0638 41.5772 17.4217C42.9351 18.7795 43.698 20.6212 43.698 22.5416V36.4573V36.4573ZM47 22.5416C47 16.7195 42.2794 12 36.4563 12H22.5438C16.7195 12 12 16.7195 12 22.5416V36.4573C12 42.2794 16.7206 47 22.5438 47H36.4563C39.2526 47 41.9345 45.8891 43.9118 43.9118C45.8891 41.9345 47 39.2526 47 36.4563V22.5416ZM29.5591 35.2619C28.0912 35.2601 26.684 34.6763 25.646 33.6383C24.6081 32.6004 24.0242 31.1932 24.0225 29.7253C24.0242 28.2575 24.6081 26.8502 25.646 25.8123C26.684 24.7744 28.0912 24.1905 29.5591 24.1888C31.027 24.1902 32.4344 24.774 33.4724 25.812C34.5104 26.85 35.0942 28.2574 35.0956 29.7253C35.0942 31.1933 34.5104 32.6007 33.4724 33.6387C32.4344 34.6766 31.027 35.2604 29.5591 35.2619V35.2619ZM29.5591 21.0825C24.7936 21.0825 20.9163 24.9598 20.9163 29.7253C20.9163 34.4919 24.7936 38.3681 29.5591 38.3681C34.3256 38.3681 38.203 34.4919 38.203 29.7253C38.203 24.9598 34.3256 21.0825 29.5591 21.0825V21.0825ZM38.7072 18.4433C38.4369 18.4433 38.1693 18.4965 37.9197 18.5999C37.67 18.7033 37.4431 18.8549 37.252 19.046C37.0609 19.2371 36.9094 19.464 36.8059 19.7137C36.7025 19.9633 36.6493 20.2309 36.6493 20.5012C36.6493 20.7714 36.7025 21.039 36.8059 21.2887C36.9094 21.5384 37.0609 21.7652 37.252 21.9563C37.4431 22.1474 37.67 22.299 37.9197 22.4024C38.1693 22.5058 38.4369 22.5591 38.7072 22.5591C39.253 22.5591 39.7764 22.3422 40.1623 21.9563C40.5483 21.5704 40.7651 21.047 40.7651 20.5012C40.7651 19.9554 40.5483 19.432 40.1623 19.046C39.7764 18.6601 39.253 18.4433 38.7072 18.4433V18.4433Z" fill="#9D32C9"/>
</svg>
