<svg width="58" height="58" viewBox="0 0 58 58" fill="none" xmlns="http://www.w3.org/2000/svg">
<rect x="2" y="2" width="54" height="54" stroke="#D059FF" stroke-width="4"/>
<g clip-path="url(#clip0)">
<path fill-rule="evenodd" clip-rule="evenodd" d="M46.8687 18.7374C45.7563 19.2406 44.5324 19.5457 43.3337 19.747C43.9024 19.6507 44.7424 18.6204 45.0782 18.2026C45.5901 17.5671 46.0155 16.8409 46.2551 16.0588C46.2857 15.9976 46.3098 15.921 46.2485 15.874C46.1719 15.8445 46.1216 15.8598 46.0604 15.8904C44.7332 16.5991 43.3226 17.1392 41.8615 17.4982C41.8108 17.514 41.7568 17.5152 41.7055 17.5016C41.6543 17.4881 41.6079 17.4604 41.5716 17.4217C41.4594 17.287 41.3369 17.1612 41.2052 17.0454C40.5987 16.5229 39.9117 16.1019 39.1708 15.7985C38.1819 15.398 37.1152 15.226 36.0504 15.2954C35.0161 15.3657 34.0077 15.6507 33.0896 16.1321C32.1699 16.6129 31.3579 17.2761 30.703 18.0812C30.0235 18.9171 29.5365 19.8926 29.2768 20.9381C29.0318 21.9443 29.0515 22.9374 29.2002 23.9535C29.2243 24.122 29.209 24.1449 29.0569 24.122C23.2863 23.2656 18.5066 21.2006 14.6249 16.7796C14.4565 16.5871 14.3646 16.5871 14.2268 16.7938C12.5282 19.3401 13.3518 23.4296 15.4737 25.4399C15.7569 25.7079 16.0468 25.9759 16.3607 26.2198C16.2469 26.2438 14.8349 26.0907 13.576 25.4399C13.4076 25.3338 13.3233 25.3951 13.308 25.5854C13.2971 25.8619 13.3125 26.1387 13.354 26.4123C13.6799 28.9935 15.4671 31.3801 17.9149 32.312C18.2058 32.4334 18.5263 32.5417 18.8402 32.5942C18.2824 32.7167 17.7082 32.8042 16.1091 32.6795C15.9101 32.6401 15.8335 32.7396 15.9101 32.931C17.111 36.2068 19.7054 37.1813 21.6479 37.7359C21.9082 37.7818 22.1685 37.7818 22.4288 37.8431C22.4135 37.866 22.3982 37.866 22.3829 37.889C21.7376 38.8712 19.5041 39.6029 18.464 39.9671C16.5718 40.6278 14.5122 40.9253 12.5118 40.7284C12.1924 40.6813 12.1246 40.6846 12.0382 40.7284C11.9507 40.7831 12.0272 40.8596 12.1301 40.9417C12.5347 41.2096 12.9482 41.447 13.3693 41.6767C14.6336 42.3507 15.9679 42.8844 17.3483 43.2681C24.4982 45.2423 32.5515 43.792 37.9218 38.4578C42.136 34.2687 43.6137 28.4926 43.6137 22.7078C43.6137 22.4824 43.8805 22.3578 44.0402 22.2374C45.1373 21.4138 46.009 20.4273 46.8271 19.3259C47.0108 19.0787 46.9999 18.8588 46.9999 18.7681V18.7374C46.9999 18.6456 47.0108 18.6729 46.8687 18.7374Z" fill="#D059FF"/>
</g>
<defs>
<clipPath id="clip0">
<rect width="35" height="35" fill="white" transform="translate(12 11.9999)"/>
</clipPath>
</defs>
</svg>
